USFL
nRows=110
nColumns=2
inDegrees=yes
endheader
time	med_gas_r	
3.0625	 39.714702	
3.125	 41.277431	
3.1875	 41.330687	
3.25	 41.388950	
3.3125	 41.433328	
3.375	 41.437344	
3.4375	 41.371935	
3.5	 41.213723	
3.5625	 41.174258	
3.625	 41.232860	
3.6875	 41.304610	
3.75	 41.285949	
3.8125	 41.188117	
3.875	 41.300460	
3.9375	 41.276704	
4	 41.178418	
4.0625	 41.290477	
4.125	 41.236854	
4.1875	 41.208768	
4.25	 41.089961	
4.3125	 41.142450	
4.375	 41.069140	
4.4375	 41.143055	
4.5	 41.152213	
4.5625	 41.164905	
4.625	 41.098311	
4.6875	 41.085002	
4.75	 41.110872	
4.8125	 41.096225	
4.875	 41.120244	
4.9375	 41.004279	
5	 41.079498	
5.0625	 41.101339	
5.125	 38.214217	
5.1875	 36.578010	
5.25	 36.777536	
5.3125	 36.352808	
5.375	 36.455543	
5.4375	 35.825924	
5.5	 35.751527	
5.5625	 35.702771	
5.625	 35.407612	
5.6875	 31.216998	
5.75	 31.086600	
5.8125	 31.524288	
5.875	 31.297428	
5.9375	 27.401942	
6	 25.843624	
6.0625	 23.823445	
6.125	 23.715517	
6.1875	 23.656011	
6.25	 23.941775	
6.3125	 24.146956	
6.375	 24.362118	
6.4375	 24.699067	
6.5	 24.972003	
6.5625	 25.183160	
6.625	 25.339717	
6.6875	 25.861844	
6.75	 26.161871	
6.8125	 26.331539	
6.875	 27.538936	
6.9375	 27.746424	
7	 27.573957	
7.0625	 27.216587	
7.125	 27.119870	
7.1875	 27.139718	
7.25	 26.990217	
7.3125	 26.922448	
7.375	 27.016865	
7.4375	 27.171690	
7.5	 27.240172	
7.5625	 27.179808	
7.625	 27.315996	
7.6875	 27.541491	
7.75	 27.684322	
7.8125	 27.534451	
7.875	 27.273124	
7.9375	 26.508442	
8	 25.993121	
8.0625	 25.589788	
8.125	 25.109341	
8.1875	 25.023207	
8.25	 24.647032	
8.3125	 24.380956	
8.375	 24.391113	
8.4375	 24.337209	
8.5	 24.389841	
8.5625	 24.463337	
8.625	 24.357000	
8.6875	 24.464583	
8.75	 24.404350	
8.8125	 24.347823	
8.875	 24.185792	
8.9375	 24.066572	
9	 23.920700	
9.0625	 23.465600	
9.125	 23.303790	
9.1875	 23.691129	
9.25	 26.134133	
9.3125	 25.929000	
9.375	 26.159465	
9.4375	 29.551365	
9.5	 31.939360	
9.5625	 34.232005	
9.625	 37.449768	
9.6875	 36.575925	
9.75	 41.160935	
9.8125	 41.061763	
9.875	 40.465030	
